<svg xmlns="http://www.w3.org/2000/svg" viewBox="126 456 1002 340" fill="#F2F3F5" style="color:#F2F3F5"><g transform="translate(0.000000,1254.000000) scale(0.100000,-0.100000)"
fill="currentColor" >
<path d="M4646 7959 l-26 -20 -2 -787 -3 -787 -1664 -3 c-1210 -1 -1668 -5
-1678 -13 -17 -15 -18 -130 -1 -147 9 -9 396 -12 1680 -12 l1668 0 0 -774 c0
-426 3 -782 6 -791 10 -26 60 -45 120 -45 54 0 64 5 228 103 542 328 662 402
673 416 9 12 12 121 13 434 l0 417 -65 0 -65 0 -2 -312 -3 -313 -295 -152
-295 -152 -3 1261 c-1 694 0 1264 3 1267 3 3 138 -62 300 -144 l295 -150 0
-322 0 -323 65 0 65 0 0 428 c-1 320 -4 431 -13 442 -12 15 -179 116 -618 374
l-215 126 -71 0 c-56 0 -76 -4 -97 -21z M7650 7933 c-41 -25 -221 -131 -400
-235 -179 -104 -335 -201 -347 -214 l-23 -25 0 -425 0 -424 70 0 70 0 0 324 0
325 291 146 c160 81 293 145 295 142 2 -2 3 -571 2 -1264 l-3 -1261 -292 152
-293 151 0 313 0 312 -70 0 -70 0 0 -404 c0 -223 4 -416 9 -429 6 -16 57 -53
153 -112 79 -48 188 -116 243 -150 55 -34 180 -110 277 -168 l177 -107 66 0
c60 0 69 3 96 29 l29 29 0 776 0 776 1663 0 c1280 0 1666 3 1675 12 16 16 16
130 0 146 -9 9 -395 12 -1675 12 l-1663 0 0 776 c0 570 -3 781 -12 797 -20 39
-40 46 -118 46 -71 -1 -79 -3 -150 -46z M6226 6641 c-10 -11 -57 -82 -105
-158 l-87 -138 -252 -3 -252 -2 0 -75 0 -75 283 0 c258 0 285 2 299 18 8 9 45
66 83 125 37 59 72 106 78 104 5 -1 44 -57 87 -123 l76 -119 289 0 290 0 3 73
3 72 -256 0 -255 0 -89 138 c-49 75 -96 147 -105 160 -21 28 -66 29 -90 3z"/>
</g></svg>