<svg xmlns="http://www.w3.org/2000/svg" viewBox="0 0 1760 1080" font-family="Inter, system-ui, -apple-system, sans-serif">
<title>Sluice architecture — metered nanopayments settled on Arc via Circle Gateway</title>
<desc>Five lanes: actors (human, buyer agent, partner agents), surfaces (landing, console, docs, SDK, MCP), Sluice core (registry, the Meter, settlement backends, receipts, connectors, profiles), the Circle layer (Gateway Wallet, x402 handshake, Circle Gateway), and Arc testnet contracts (RoyaltySplitter, BondEscrow, ERC-8004, funding pool, Arcscan). A numbered eight-step payment flow runs from deposit through request, EIP-3009 signature, sub-second verification, metered accrual, gas-free batch settlement on Arc, to a verifiable receipt. Theme: dark.</desc>
<defs>
  <pattern id="dots" width="22" height="22" patternUnits="userSpaceOnUse">
    <circle cx="1.5" cy="1.5" r="1.2" fill="#FFFFFF" opacity="0.03"/>
  </pattern>
  <filter id="cardShadow" x="-10%" y="-10%" width="120%" height="130%">
    <feDropShadow dx="0" dy="2" stdDeviation="4" flood-color="#000000" flood-opacity="0.35"/>
  </filter>
  <marker id="arrGrey" markerWidth="9" markerHeight="9" refX="7" refY="4.5" orient="auto">
    <path d="M 0 0 L 8 4.5 L 0 9 z" fill="#2A2C31"/>
  </marker>
  <marker id="arrFlow" markerWidth="9" markerHeight="9" refX="7" refY="4.5" orient="auto">
    <path d="M 0 0 L 8 4.5 L 0 9 z" fill="#6FE3F0"/>
  </marker>
</defs>
<rect width="1760" height="1080" fill="#0A0A0B"/>
<rect width="1760" height="1080" fill="url(#dots)"/>
<text x="48" y="66" font-family="JetBrains Mono, ui-monospace, SFMono-Regular, monospace" font-size="26" font-weight="400" fill="#6A6E76" letter-spacing="2.6">SLUICE — SYSTEM ARCHITECTURE</text>
<text x="48" y="100" font-family="Inter, system-ui, -apple-system, sans-serif" font-size="23" font-weight="400" fill="#A7ABB2">Metered nanopayments, batch-settled on Arc via Circle Gateway — every unit priced, every receipt verifiable.</text>
<rect x="40" y="128" width="1680" height="148" rx="14" fill="#0D0D0F" stroke="rgba(255,255,255,0.05)" stroke-width="1"/>
<text x="60" y="156" font-family="JetBrains Mono, ui-monospace, SFMono-Regular, monospace" font-size="20" font-weight="400" fill="#6A6E76" letter-spacing="2.6">ACTORS</text>
<rect x="40" y="292" width="1680" height="132" rx="14" fill="#0D0D0F" stroke="rgba(255,255,255,0.05)" stroke-width="1"/>
<text x="60" y="320" font-family="JetBrains Mono, ui-monospace, SFMono-Regular, monospace" font-size="20" font-weight="400" fill="#6A6E76" letter-spacing="2.6">SURFACES</text>
<rect x="40" y="440" width="1680" height="236" rx="14" fill="#0D0D0F" stroke="rgba(255,255,255,0.05)" stroke-width="1"/>
<text x="60" y="468" font-family="JetBrains Mono, ui-monospace, SFMono-Regular, monospace" font-size="20" font-weight="400" fill="#6A6E76" letter-spacing="2.6">SLUICE CORE</text>
<rect x="40" y="692" width="1680" height="148" rx="14" fill="#0D0D0F" stroke="rgba(255,255,255,0.05)" stroke-width="1"/>
<text x="60" y="720" font-family="JetBrains Mono, ui-monospace, SFMono-Regular, monospace" font-size="20" font-weight="400" fill="#6A6E76" letter-spacing="2.6">CIRCLE LAYER</text>
<rect x="40" y="856" width="1680" height="160" rx="14" fill="#0D0D0F" stroke="rgba(255,255,255,0.05)" stroke-width="1"/>
<text x="60" y="884" font-family="JetBrains Mono, ui-monospace, SFMono-Regular, monospace" font-size="20" font-weight="400" fill="#6A6E76" letter-spacing="2.6">ARC TESTNET — CHAIN ID 5042002 · USDC GAS</text>
<rect x="100" y="166" width="260" height="88" rx="12" fill="#111113" stroke="rgba(255,255,255,0.08)" stroke-width="1" filter="url(#cardShadow)"/>
<path d="M 101 193 v -14.5 q 0 -11.5 11.5 -11.5 h 235 q 11.5 0 11.5 11.5 v 14.5 z" fill="#17181B"/>
<text x="114" y="186" font-family="JetBrains Mono, ui-monospace, SFMono-Regular, monospace" font-size="19" font-weight="600" fill="#F4F5F6" letter-spacing="1.2">HUMAN</text>
<text x="114" y="218" font-family="Inter, system-ui, -apple-system, sans-serif" font-size="20" font-weight="400" fill="#A7ABB2">Browser · Reown wallet</text>
<rect x="114" y="220" width="100" height="26" rx="13" fill="#1F2024" stroke="rgba(255,255,255,0.10)" stroke-width="1"/>
<text x="164" y="238.5" font-family="JetBrains Mono, ui-monospace, SFMono-Regular, monospace" font-size="17" font-weight="400" fill="#6A6E76" text-anchor="middle">connect</text>
<rect x="700" y="166" width="360" height="88" rx="12" fill="#111113" stroke="rgba(255,255,255,0.08)" stroke-width="1" filter="url(#cardShadow)"/>
<path d="M 701 193 v -14.5 q 0 -11.5 11.5 -11.5 h 335 q 11.5 0 11.5 11.5 v 14.5 z" fill="#17181B"/>
<text x="714" y="186" font-family="JetBrains Mono, ui-monospace, SFMono-Regular, monospace" font-size="19" font-weight="600" fill="#F4F5F6" letter-spacing="1.2">BUYER AGENT</text>
<text x="714" y="218" font-family="Inter, system-ui, -apple-system, sans-serif" font-size="20" font-weight="400" fill="#A7ABB2">LLM reasons · code enforces</text>
<rect x="714" y="224" width="180" height="10" rx="5" fill="#1F2024"/>
<rect x="714" y="224" width="118" height="10" rx="5" fill="#6FE3F0" opacity="0.85"/>
<text x="904" y="234" font-family="JetBrains Mono, ui-monospace, SFMono-Regular, monospace" font-size="16" font-weight="400" fill="#6A6E76">budget</text>
<rect x="972" y="216" width="88" height="26" rx="13" fill="#1F2024" stroke="rgba(255,255,255,0.10)" stroke-width="1"/>
<text x="1016" y="234.5" font-family="JetBrains Mono, ui-monospace, SFMono-Regular, monospace" font-size="17" font-weight="400" fill="#6A6E76" text-anchor="middle">policy</text>
<rect x="1340" y="166" width="300" height="88" rx="12" fill="#111113" stroke="rgba(255,255,255,0.08)" stroke-width="1" filter="url(#cardShadow)"/>
<path d="M 1341 193 v -14.5 q 0 -11.5 11.5 -11.5 h 275 q 11.5 0 11.5 11.5 v 14.5 z" fill="#17181B"/>
<text x="1354" y="186" font-family="JetBrains Mono, ui-monospace, SFMono-Regular, monospace" font-size="19" font-weight="600" fill="#F4F5F6" letter-spacing="1.2">PARTNER AGENTS</text>
<text x="1354" y="218" font-family="Inter, system-ui, -apple-system, sans-serif" font-size="20" font-weight="400" fill="#A7ABB2">Other teams' buyers</text>
<rect x="1354" y="216" width="66" height="26" rx="13" fill="#1F2024" stroke="rgba(255,255,255,0.10)" stroke-width="1"/>
<text x="1387" y="234.5" font-family="JetBrains Mono, ui-monospace, SFMono-Regular, monospace" font-size="17" font-weight="400" fill="#6FE3F0" text-anchor="middle">x402</text>
<text x="1444" y="234" font-family="Inter, system-ui, -apple-system, sans-serif" font-size="16" font-weight="400" fill="#6A6E76">pay endpoints directly</text>
<rect x="100" y="328" width="200" height="88" rx="12" fill="#111113" stroke="rgba(255,255,255,0.08)" stroke-width="1" filter="url(#cardShadow)"/>
<path d="M 101 355 v -14.5 q 0 -11.5 11.5 -11.5 h 175 q 11.5 0 11.5 11.5 v 14.5 z" fill="#17181B"/>
<text x="114" y="348" font-family="JetBrains Mono, ui-monospace, SFMono-Regular, monospace" font-size="19" font-weight="600" fill="#F4F5F6" letter-spacing="1.2">LANDING / ASK</text>
<text x="114" y="380" font-family="Inter, system-ui, -apple-system, sans-serif" font-size="20" font-weight="400" fill="#A7ABB2">public site · /ask</text>
<rect x="380" y="328" width="460" height="88" rx="12" fill="#111113" stroke="rgba(255,255,255,0.08)" stroke-width="1" filter="url(#cardShadow)"/>
<path d="M 381 355 v -14.5 q 0 -11.5 11.5 -11.5 h 435 q 11.5 0 11.5 11.5 v 14.5 z" fill="#17181B"/>
<text x="394" y="348" font-family="JetBrains Mono, ui-monospace, SFMono-Regular, monospace" font-size="19" font-weight="600" fill="#F4F5F6" letter-spacing="1.2">CONSOLE</text>
<rect x="394" y="352" width="66" height="26" rx="13" fill="#1F2024" stroke="rgba(255,255,255,0.10)" stroke-width="1"/>
<text x="427" y="370.5" font-family="Inter, system-ui, -apple-system, sans-serif" font-size="17" font-weight="400" fill="#A7ABB2" text-anchor="middle">Earn</text>
<rect x="468" y="352" width="77" height="26" rx="13" fill="#1F2024" stroke="rgba(255,255,255,0.10)" stroke-width="1"/>
<text x="506.5" y="370.5" font-family="Inter, system-ui, -apple-system, sans-serif" font-size="17" font-weight="400" fill="#A7ABB2" text-anchor="middle">Spend</text>
<rect x="553" y="352" width="100" height="26" rx="13" fill="#1F2024" stroke="rgba(255,255,255,0.10)" stroke-width="1"/>
<text x="603" y="370.5" font-family="Inter, system-ui, -apple-system, sans-serif" font-size="17" font-weight="400" fill="#A7ABB2" text-anchor="middle">Streams</text>
<rect x="661" y="352" width="88" height="26" rx="13" fill="#1F2024" stroke="rgba(255,255,255,0.10)" stroke-width="1"/>
<text x="705" y="370.5" font-family="Inter, system-ui, -apple-system, sans-serif" font-size="17" font-weight="400" fill="#A7ABB2" text-anchor="middle">Bazaar</text>
<rect x="394" y="383" width="100" height="26" rx="13" fill="#1F2024" stroke="rgba(255,255,255,0.10)" stroke-width="1"/>
<text x="444" y="401.5" font-family="Inter, system-ui, -apple-system, sans-serif" font-size="17" font-weight="400" fill="#A7ABB2" text-anchor="middle">Funding</text>
<rect x="502" y="383" width="111" height="26" rx="13" fill="#1F2024" stroke="rgba(255,255,255,0.10)" stroke-width="1"/>
<text x="557.5" y="401.5" font-family="Inter, system-ui, -apple-system, sans-serif" font-size="17" font-weight="400" fill="#A7ABB2" text-anchor="middle">Treasury</text>
<rect x="621" y="383" width="145" height="26" rx="13" fill="#1F2024" stroke="rgba(255,255,255,0.10)" stroke-width="1"/>
<text x="693.5" y="401.5" font-family="Inter, system-ui, -apple-system, sans-serif" font-size="17" font-weight="400" fill="#A7ABB2" text-anchor="middle">Settlements</text>
<rect x="920" y="328" width="140" height="88" rx="12" fill="#111113" stroke="rgba(255,255,255,0.08)" stroke-width="1" filter="url(#cardShadow)"/>
<path d="M 921 355 v -14.5 q 0 -11.5 11.5 -11.5 h 115 q 11.5 0 11.5 11.5 v 14.5 z" fill="#17181B"/>
<text x="934" y="348" font-family="JetBrains Mono, ui-monospace, SFMono-Regular, monospace" font-size="19" font-weight="600" fill="#F4F5F6" letter-spacing="1.2">DOCS</text>
<text x="934" y="380" font-family="Inter, system-ui, -apple-system, sans-serif" font-size="20" font-weight="400" fill="#A7ABB2">/docs</text>
<rect x="1100" y="328" width="210" height="88" rx="12" fill="#111113" stroke="rgba(255,255,255,0.08)" stroke-width="1" filter="url(#cardShadow)"/>
<path d="M 1101 355 v -14.5 q 0 -11.5 11.5 -11.5 h 185 q 11.5 0 11.5 11.5 v 14.5 z" fill="#17181B"/>
<text x="1114" y="348" font-family="JetBrains Mono, ui-monospace, SFMono-Regular, monospace" font-size="19" font-weight="600" fill="#F4F5F6" letter-spacing="1.2">SLUICE-PAY SDK</text>
<text x="1114" y="380" font-family="Inter, system-ui, -apple-system, sans-serif" font-size="20" font-weight="400" fill="#A7ABB2">one-call x402 pay</text>
<rect x="1350" y="328" width="210" height="88" rx="12" fill="#111113" stroke="rgba(255,255,255,0.08)" stroke-width="1" filter="url(#cardShadow)"/>
<path d="M 1351 355 v -14.5 q 0 -11.5 11.5 -11.5 h 185 q 11.5 0 11.5 11.5 v 14.5 z" fill="#17181B"/>
<text x="1364" y="348" font-family="JetBrains Mono, ui-monospace, SFMono-Regular, monospace" font-size="19" font-weight="600" fill="#F4F5F6" letter-spacing="1.2">MCP SERVER</text>
<text x="1364" y="380" font-family="Inter, system-ui, -apple-system, sans-serif" font-size="20" font-weight="400" fill="#A7ABB2">agent-native tools</text>
<rect x="100" y="470" width="220" height="64" rx="12" fill="#111113" stroke="rgba(255,255,255,0.08)" stroke-width="1" filter="url(#cardShadow)"/>
<path d="M 101 497 v -14.5 q 0 -11.5 11.5 -11.5 h 195 q 11.5 0 11.5 11.5 v 14.5 z" fill="#17181B"/>
<text x="114" y="490" font-family="JetBrains Mono, ui-monospace, SFMono-Regular, monospace" font-size="19" font-weight="600" fill="#F4F5F6" letter-spacing="1.2">REGISTRY</text>
<text x="114" y="522" font-family="Inter, system-ui, -apple-system, sans-serif" font-size="20" font-weight="400" fill="#A7ABB2">priced endpoints</text>
<rect x="100" y="550" width="220" height="64" rx="12" fill="#111113" stroke="rgba(255,255,255,0.08)" stroke-width="1" filter="url(#cardShadow)"/>
<path d="M 101 577 v -14.5 q 0 -11.5 11.5 -11.5 h 195 q 11.5 0 11.5 11.5 v 14.5 z" fill="#17181B"/>
<text x="114" y="570" font-family="JetBrains Mono, ui-monospace, SFMono-Regular, monospace" font-size="19" font-weight="600" fill="#F4F5F6" letter-spacing="1.2">PROFILES</text>
<text x="114" y="602" font-family="Inter, system-ui, -apple-system, sans-serif" font-size="20" font-weight="400" fill="#A7ABB2">1 profile = 1 human</text>
<rect x="560" y="470" width="440" height="160" rx="14" fill="#111113" stroke="#6FE3F0" stroke-opacity="0.45" stroke-width="1.5" filter="url(#cardShadow)"/>
<path d="M 561 499 v -14 q 0 -14 14 -14 h 410 q 14 0 14 14 v 14 z" fill="#17181B"/>
<text x="576" y="491" font-family="JetBrains Mono, ui-monospace, SFMono-Regular, monospace" font-size="22" font-weight="700" fill="#F4F5F6" letter-spacing="1.6">THE METER</text>
<line x1="880" y1="484" x2="946" y2="484" stroke="#6FE3F0" stroke-width="2.5"/>
<circle cx="913" cy="484" r="9" fill="#111113" stroke="#6FE3F0" stroke-width="2.5"/>
<circle cx="972" cy="484" r="9" fill="rgba(111,227,240,0.16)"/>
<circle cx="972" cy="484" r="4" fill="#6FE3F0"/>
<rect x="576" y="514" width="145" height="26" rx="13" fill="#1F2024" stroke="rgba(255,255,255,0.10)" stroke-width="1"/>
<text x="648.5" y="532.5" font-family="JetBrains Mono, ui-monospace, SFMono-Regular, monospace" font-size="17" font-weight="400" fill="#A7ABB2" text-anchor="middle">per_request</text>
<rect x="731" y="514" width="157" height="26" rx="13" fill="#1F2024" stroke="rgba(255,255,255,0.10)" stroke-width="1"/>
<text x="809.5" y="532.5" font-family="JetBrains Mono, ui-monospace, SFMono-Regular, monospace" font-size="17" font-weight="400" fill="#A7ABB2" text-anchor="middle">per_citation</text>
<rect x="576" y="548" width="134" height="26" rx="13" fill="#1F2024" stroke="rgba(255,255,255,0.10)" stroke-width="1"/>
<text x="643" y="566.5" font-family="JetBrains Mono, ui-monospace, SFMono-Regular, monospace" font-size="17" font-weight="400" fill="#A7ABB2" text-anchor="middle">per_second</text>
<rect x="720" y="548" width="134" height="26" rx="13" fill="#1F2024" stroke="rgba(255,255,255,0.10)" stroke-width="1"/>
<text x="787" y="566.5" font-family="JetBrains Mono, ui-monospace, SFMono-Regular, monospace" font-size="17" font-weight="400" fill="#A7ABB2" text-anchor="middle">per_listen</text>
<text x="576" y="606" font-family="Inter, system-ui, -apple-system, sans-serif" font-size="19" font-weight="400" fill="#6A6E76">accrual ledger · batches sub-floor units</text>
<rect x="1060" y="470" width="300" height="160" rx="12" fill="#111113" stroke="rgba(255,255,255,0.08)" stroke-width="1" filter="url(#cardShadow)"/>
<path d="M 1061 497 v -14.5 q 0 -11.5 11.5 -11.5 h 275 q 11.5 0 11.5 11.5 v 14.5 z" fill="#17181B"/>
<text x="1074" y="490" font-family="JetBrains Mono, ui-monospace, SFMono-Regular, monospace" font-size="19" font-weight="600" fill="#F4F5F6" letter-spacing="1.2">SETTLEMENT</text>
<rect x="1074" y="510" width="272" height="44" rx="8" fill="#1F2024" stroke="rgba(255,255,255,0.10)"/>
<text x="1086" y="538" font-family="JetBrains Mono, ui-monospace, SFMono-Regular, monospace" font-size="19" font-weight="400" fill="#F4F5F6">GatewayBatched</text>
<text x="1334" y="538" font-family="JetBrains Mono, ui-monospace, SFMono-Regular, monospace" font-size="16" font-weight="400" fill="#6FE3F0" text-anchor="end">primary</text>
<rect x="1074" y="564" width="272" height="44" rx="8" fill="#1F2024" stroke="rgba(255,255,255,0.10)"/>
<text x="1086" y="592" font-family="JetBrains Mono, ui-monospace, SFMono-Regular, monospace" font-size="19" font-weight="400" fill="#A7ABB2">DirectX402</text>
<text x="1334" y="592" font-family="JetBrains Mono, ui-monospace, SFMono-Regular, monospace" font-size="16" font-weight="400" fill="#6A6E76" text-anchor="end">fallback</text>
<rect x="1400" y="470" width="260" height="64" rx="12" fill="#111113" stroke="rgba(255,255,255,0.08)" stroke-width="1" filter="url(#cardShadow)"/>
<path d="M 1401 497 v -14.5 q 0 -11.5 11.5 -11.5 h 235 q 11.5 0 11.5 11.5 v 14.5 z" fill="#17181B"/>
<text x="1414" y="490" font-family="JetBrains Mono, ui-monospace, SFMono-Regular, monospace" font-size="19" font-weight="600" fill="#F4F5F6" letter-spacing="1.2">RECEIPTS</text>
<text x="1414" y="522" font-family="Inter, system-ui, -apple-system, sans-serif" font-size="20" font-weight="400" fill="#A7ABB2">immutable store</text>
<rect x="1400" y="550" width="260" height="64" rx="12" fill="#111113" stroke="rgba(255,255,255,0.08)" stroke-width="1" filter="url(#cardShadow)"/>
<path d="M 1401 577 v -14.5 q 0 -11.5 11.5 -11.5 h 235 q 11.5 0 11.5 11.5 v 14.5 z" fill="#17181B"/>
<text x="1414" y="570" font-family="JetBrains Mono, ui-monospace, SFMono-Regular, monospace" font-size="19" font-weight="600" fill="#F4F5F6" letter-spacing="1.2">RSS / RSSHUB</text>
<text x="1414" y="602" font-family="Inter, system-ui, -apple-system, sans-serif" font-size="20" font-weight="400" fill="#A7ABB2">feeds → resources</text>
<rect x="100" y="728" width="340" height="84" rx="12" fill="#111113" stroke="rgba(255,255,255,0.08)" stroke-width="1" filter="url(#cardShadow)"/>
<path d="M 101 755 v -14.5 q 0 -11.5 11.5 -11.5 h 315 q 11.5 0 11.5 11.5 v 14.5 z" fill="#17181B"/>
<text x="114" y="748" font-family="JetBrains Mono, ui-monospace, SFMono-Regular, monospace" font-size="19" font-weight="600" fill="#F4F5F6" letter-spacing="1.2">GATEWAY WALLET</text>
<text x="114" y="780" font-family="Inter, system-ui, -apple-system, sans-serif" font-size="20" font-weight="400" fill="#A7ABB2">deposits · verifying contract</text>
<text x="114" y="800" font-family="JetBrains Mono, ui-monospace, SFMono-Regular, monospace" font-size="17" font-weight="400" fill="#6A6E76">0x0077…19B9</text>
<rect x="560" y="728" width="360" height="84" rx="12" fill="#111113" stroke="rgba(255,255,255,0.08)" stroke-width="1" filter="url(#cardShadow)"/>
<path d="M 561 755 v -14.5 q 0 -11.5 11.5 -11.5 h 335 q 11.5 0 11.5 11.5 v 14.5 z" fill="#17181B"/>
<text x="574" y="748" font-family="JetBrains Mono, ui-monospace, SFMono-Regular, monospace" font-size="19" font-weight="600" fill="#F4F5F6" letter-spacing="1.2">X402 HANDSHAKE</text>
<text x="574" y="780" font-family="Inter, system-ui, -apple-system, sans-serif" font-size="20" font-weight="400" fill="#A7ABB2">402 → sign EIP-3009 → retry</text>
<rect x="1040" y="728" width="400" height="84" rx="12" fill="#111113" stroke="rgba(255,255,255,0.08)" stroke-width="1" filter="url(#cardShadow)"/>
<path d="M 1041 755 v -14.5 q 0 -11.5 11.5 -11.5 h 375 q 11.5 0 11.5 11.5 v 14.5 z" fill="#17181B"/>
<text x="1054" y="748" font-family="JetBrains Mono, ui-monospace, SFMono-Regular, monospace" font-size="19" font-weight="600" fill="#F4F5F6" letter-spacing="1.2">CIRCLE GATEWAY</text>
<text x="1054" y="780" font-family="Inter, system-ui, -apple-system, sans-serif" font-size="20" font-weight="400" fill="#A7ABB2">verify &lt;1s · batch &amp; settle</text>
<circle cx="1412" cy="750" r="9" fill="rgba(111,227,240,0.16)"/>
<circle cx="1412" cy="750" r="4" fill="#6FE3F0"/>
<text x="1054" y="800" font-family="Inter, system-ui, -apple-system, sans-serif" font-size="17" font-weight="400" fill="#6A6E76">gas-free attested ledger</text>
<rect x="100" y="896" width="230" height="76" rx="12" fill="#111113" stroke="rgba(255,255,255,0.08)" stroke-width="1" filter="url(#cardShadow)"/>
<path d="M 101 923 v -14.5 q 0 -11.5 11.5 -11.5 h 205 q 11.5 0 11.5 11.5 v 14.5 z" fill="#17181B"/>
<text x="114" y="916" font-family="JetBrains Mono, ui-monospace, SFMono-Regular, monospace" font-size="19" font-weight="600" fill="#F4F5F6" letter-spacing="1.2">ROYALTYSPLITTER</text>
<text x="114" y="948" font-family="Inter, system-ui, -apple-system, sans-serif" font-size="20" font-weight="400" fill="#A7ABB2">fan-out by share</text>
<rect x="370" y="896" width="220" height="76" rx="12" fill="#111113" stroke="rgba(255,255,255,0.08)" stroke-width="1" filter="url(#cardShadow)"/>
<path d="M 371 923 v -14.5 q 0 -11.5 11.5 -11.5 h 195 q 11.5 0 11.5 11.5 v 14.5 z" fill="#17181B"/>
<text x="384" y="916" font-family="JetBrains Mono, ui-monospace, SFMono-Regular, monospace" font-size="19" font-weight="600" fill="#F4F5F6" letter-spacing="1.2">BONDESCROW</text>
<text x="384" y="948" font-family="Inter, system-ui, -apple-system, sans-serif" font-size="20" font-weight="400" fill="#A7ABB2">slash / release</text>
<rect x="630" y="896" width="300" height="76" rx="12" fill="#111113" stroke="rgba(255,255,255,0.08)" stroke-width="1" filter="url(#cardShadow)"/>
<path d="M 631 923 v -14.5 q 0 -11.5 11.5 -11.5 h 275 q 11.5 0 11.5 11.5 v 14.5 z" fill="#17181B"/>
<text x="644" y="916" font-family="JetBrains Mono, ui-monospace, SFMono-Regular, monospace" font-size="19" font-weight="600" fill="#F4F5F6" letter-spacing="1.2">ERC-8004</text>
<text x="644" y="948" font-family="Inter, system-ui, -apple-system, sans-serif" font-size="20" font-weight="400" fill="#A7ABB2">identity · reputation</text>
<rect x="970" y="896" width="200" height="76" rx="12" fill="#111113" stroke="rgba(255,255,255,0.08)" stroke-width="1" filter="url(#cardShadow)"/>
<path d="M 971 923 v -14.5 q 0 -11.5 11.5 -11.5 h 175 q 11.5 0 11.5 11.5 v 14.5 z" fill="#17181B"/>
<text x="984" y="916" font-family="JetBrains Mono, ui-monospace, SFMono-Regular, monospace" font-size="19" font-weight="600" fill="#F4F5F6" letter-spacing="1.2">FUNDING POOL</text>
<text x="984" y="948" font-family="Inter, system-ui, -apple-system, sans-serif" font-size="20" font-weight="400" fill="#A7ABB2">quadratic match</text>
<rect x="1210" y="896" width="180" height="76" rx="12" fill="#111113" stroke="rgba(255,255,255,0.08)" stroke-width="1" filter="url(#cardShadow)"/>
<path d="M 1211 923 v -14.5 q 0 -11.5 11.5 -11.5 h 155 q 11.5 0 11.5 11.5 v 14.5 z" fill="#17181B"/>
<text x="1224" y="916" font-family="JetBrains Mono, ui-monospace, SFMono-Regular, monospace" font-size="19" font-weight="600" fill="#F4F5F6" letter-spacing="1.2">ARCSCAN</text>
<text x="1224" y="948" font-family="Inter, system-ui, -apple-system, sans-serif" font-size="20" font-weight="400" fill="#A7ABB2">explorer</text>
<circle cx="1352" cy="946" r="11" fill="none" stroke="#A7ABB2" stroke-width="2.5"/>
<line x1="1360" y1="954" x2="1372" y2="966" stroke="#A7ABB2" stroke-width="2.5" stroke-linecap="round"/>
<rect x="1430" y="884" width="270" height="100" rx="12" fill="#111113" stroke="#4ADE80" stroke-opacity="0.4" stroke-width="1.5" filter="url(#cardShadow)"/>
<text x="1444" y="908" font-family="JetBrains Mono, ui-monospace, SFMono-Regular, monospace" font-size="16" font-weight="400" fill="#6A6E76" letter-spacing="1.2">RECEIPT — CITATION TOLL</text>
<text x="1444" y="936" font-family="Inter, system-ui, -apple-system, sans-serif" font-size="16" font-weight="400" fill="#A7ABB2">claim → source → payment → author</text>
<text x="1444" y="966" font-family="JetBrains Mono, ui-monospace, SFMono-Regular, monospace" font-size="20" font-weight="600" fill="#F4F5F6">$0.000002</text>
<circle cx="1596" cy="959" r="11" fill="none" stroke="#4ADE80" stroke-width="2.5"/>
<path d="M 1590 959 l 4.5 4.5 l 8 -9" fill="none" stroke="#4ADE80" stroke-width="2.5" stroke-linecap="round" stroke-linejoin="round"/>
<text x="1616" y="966" font-family="JetBrains Mono, ui-monospace, SFMono-Regular, monospace" font-size="16" font-weight="400" fill="#4ADE80">settled</text>
<path d="M 200 254 V 322" fill="none" stroke="#2A2C31" stroke-width="2" marker-end="url(#arrGrey)"/>
<path d="M 440 404 V 530 H 554" fill="none" stroke="#2A2C31" stroke-width="2" marker-end="url(#arrGrey)"/>
<path d="M 320 494 H 554" fill="none" stroke="#2A2C31" stroke-width="2" marker-end="url(#arrGrey)"/>
<path d="M 1360 502 H 1394" fill="none" stroke="#2A2C31" stroke-width="2" marker-end="url(#arrGrey)"/>
<path d="M 1450 254 V 322" fill="none" stroke="#2A2C31" stroke-width="2" marker-end="url(#arrGrey)"/>
<path d="M 560 790 H 446" fill="none" stroke="#2A2C31" stroke-width="2" marker-end="url(#arrGrey)"/>
<path d="M 580 630 V 660 H 500 V 848" fill="none" stroke="#2A2C31" stroke-width="2"/>
<path d="M 215 848 H 1070" fill="none" stroke="#2A2C31" stroke-width="2"/>
<path d="M 215 848 V 892" fill="none" stroke="#2A2C31" stroke-width="2" marker-end="url(#arrGrey)"/>
<path d="M 480 848 V 892" fill="none" stroke="#2A2C31" stroke-width="2" marker-end="url(#arrGrey)"/>
<path d="M 780 848 V 892" fill="none" stroke="#2A2C31" stroke-width="2" marker-end="url(#arrGrey)"/>
<path d="M 1070 848 V 892" fill="none" stroke="#2A2C31" stroke-width="2" marker-end="url(#arrGrey)"/>
<text x="560" y="840" font-family="JetBrains Mono, ui-monospace, SFMono-Regular, monospace" font-size="15" font-weight="400" fill="#6A6E76">on-chain calls</text>
<path d="M 1390 934 H 1426" fill="none" stroke="#2A2C31" stroke-width="2" marker-end="url(#arrGrey)"/>
<path d="M 100 190 H 68 V 770 H 94" fill="none" stroke="#6FE3F0" stroke-width="3" stroke-dasharray="7 7" marker-end="url(#arrFlow)"/>
<circle cx="68" cy="284" r="17" fill="#0A0A0B" stroke="#6FE3F0" stroke-width="2"/>
<text x="68" y="291" font-family="JetBrains Mono, ui-monospace, SFMono-Regular, monospace" font-size="20" font-weight="600" fill="#6FE3F0" text-anchor="middle">1</text>
<text x="94" y="291" font-family="Inter, system-ui, -apple-system, sans-serif" font-size="19" font-weight="400" fill="#A7ABB2">deposit USDC</text>
<path d="M 880 254 V 464" fill="none" stroke="#6FE3F0" stroke-width="3" stroke-dasharray="7 7" marker-end="url(#arrFlow)"/>
<circle cx="880" cy="309" r="17" fill="#0A0A0B" stroke="#6FE3F0" stroke-width="2"/>
<text x="880" y="316" font-family="JetBrains Mono, ui-monospace, SFMono-Regular, monospace" font-size="20" font-weight="600" fill="#6FE3F0" text-anchor="middle">2</text>
<text x="906" y="316" font-family="Inter, system-ui, -apple-system, sans-serif" font-size="19" font-weight="400" fill="#A7ABB2">request → 402 + price</text>
<path d="M 640 630 V 722" fill="none" stroke="#6FE3F0" stroke-width="3" stroke-dasharray="7 7" marker-end="url(#arrFlow)"/>
<circle cx="640" cy="660" r="17" fill="#0A0A0B" stroke="#6FE3F0" stroke-width="2"/>
<text x="640" y="667" font-family="JetBrains Mono, ui-monospace, SFMono-Regular, monospace" font-size="20" font-weight="600" fill="#6FE3F0" text-anchor="middle">3</text>
<text x="614" y="667" font-family="Inter, system-ui, -apple-system, sans-serif" font-size="19" font-weight="400" fill="#A7ABB2" text-anchor="end">sign EIP-3009 vs the Gateway Wallet</text>
<path d="M 840 728 V 636" fill="none" stroke="#6FE3F0" stroke-width="3" stroke-dasharray="7 7" marker-end="url(#arrFlow)"/>
<circle cx="840" cy="700" r="17" fill="#0A0A0B" stroke="#6FE3F0" stroke-width="2"/>
<text x="840" y="707" font-family="JetBrains Mono, ui-monospace, SFMono-Regular, monospace" font-size="20" font-weight="600" fill="#6FE3F0" text-anchor="middle">4</text>
<text x="866" y="707" font-family="Inter, system-ui, -apple-system, sans-serif" font-size="19" font-weight="400" fill="#A7ABB2">retry with Payment-Signature</text>
<path d="M 920 770 H 1034" fill="none" stroke="#6FE3F0" stroke-width="3" stroke-dasharray="7 7" marker-end="url(#arrFlow)"/>
<circle cx="978" cy="770" r="17" fill="#0A0A0B" stroke="#6FE3F0" stroke-width="2"/>
<text x="978" y="777" font-family="JetBrains Mono, ui-monospace, SFMono-Regular, monospace" font-size="20" font-weight="600" fill="#6FE3F0" text-anchor="middle">5</text>
<text x="978" y="815" font-family="Inter, system-ui, -apple-system, sans-serif" font-size="19" font-weight="400" fill="#A7ABB2" text-anchor="middle">verify &lt;1s</text>
<path d="M 1000 610 H 1054" fill="none" stroke="#6FE3F0" stroke-width="3" stroke-dasharray="7 7" marker-end="url(#arrFlow)"/>
<circle cx="1028" cy="610" r="17" fill="#0A0A0B" stroke="#6FE3F0" stroke-width="2"/>
<text x="1028" y="617" font-family="JetBrains Mono, ui-monospace, SFMono-Regular, monospace" font-size="20" font-weight="600" fill="#6FE3F0" text-anchor="middle">6</text>
<text x="1028" y="656" font-family="Inter, system-ui, -apple-system, sans-serif" font-size="19" font-weight="400" fill="#A7ABB2" text-anchor="middle">accrue → batch</text>
<path d="M 1210 630 V 722" fill="none" stroke="#6FE3F0" stroke-width="3" stroke-dasharray="7 7" marker-end="url(#arrFlow)"/>
<path d="M 1150 812 V 850" fill="none" stroke="#6FE3F0" stroke-width="3" stroke-dasharray="7 7" marker-end="url(#arrFlow)"/>
<circle cx="1150" cy="833" r="17" fill="#0A0A0B" stroke="#6FE3F0" stroke-width="2"/>
<text x="1150" y="840" font-family="JetBrains Mono, ui-monospace, SFMono-Regular, monospace" font-size="20" font-weight="600" fill="#6FE3F0" text-anchor="middle">7</text>
<text x="1176" y="840" font-family="Inter, system-ui, -apple-system, sans-serif" font-size="19" font-weight="400" fill="#A7ABB2">settles on Arc · gas-free</text>
<path d="M 1150 858 V 872 H 1296 V 890" fill="none" stroke="#6FE3F0" stroke-width="3" stroke-dasharray="7 7" marker-end="url(#arrFlow)"/>
<circle cx="1180" cy="872" r="17" fill="#0A0A0B" stroke="#6FE3F0" stroke-width="2"/>
<text x="1180" y="879" font-family="JetBrains Mono, ui-monospace, SFMono-Regular, monospace" font-size="20" font-weight="600" fill="#6FE3F0" text-anchor="middle">8</text>
<text x="1322" y="866" font-family="Inter, system-ui, -apple-system, sans-serif" font-size="18" font-weight="400" fill="#A7ABB2">receipt → Arcscan</text>
<line x1="48" y1="1048" x2="92" y2="1048" stroke="#2A2C31" stroke-width="2"/>
<text x="102" y="1054" font-family="Inter, system-ui, -apple-system, sans-serif" font-size="18" font-weight="400" fill="#6A6E76">structural</text>
<line x1="212" y1="1048" x2="256" y2="1048" stroke="#6FE3F0" stroke-width="3" stroke-dasharray="7 7"/>
<text x="266" y="1054" font-family="Inter, system-ui, -apple-system, sans-serif" font-size="18" font-weight="400" fill="#6A6E76">payment flow</text>
<rect x="404" y="1040" width="16" height="16" rx="4" fill="none" stroke="#A7ABB2" stroke-width="2"/>
<text x="430" y="1054" font-family="Inter, system-ui, -apple-system, sans-serif" font-size="18" font-weight="400" fill="#6A6E76">on-chain anchor</text>
<circle cx="608" cy="1048" r="9" fill="rgba(111,227,240,0.16)"/>
<circle cx="608" cy="1048" r="4" fill="#6FE3F0"/>
<text x="626" y="1054" font-family="Inter, system-ui, -apple-system, sans-serif" font-size="18" font-weight="400" fill="#6A6E76">live</text>
<text x="1712" y="1054" font-family="JetBrains Mono, ui-monospace, SFMono-Regular, monospace" font-size="17" font-weight="400" fill="#6A6E76" text-anchor="end">v1.0 · July 2026 · sluiceflow.vercel.app</text>
</svg>